<svg width="29" height="29" viewBox="0 0 29 29" fill="none" xmlns="http://www.w3.org/2000/svg">
<path d="M20.7917 13C25.0949 13 28.5833 16.4884 28.5833 20.7917C28.5833 25.0949 25.0949 28.5833 20.7917 28.5833C16.4884 28.5833 13 25.0949 13 20.7917C13 16.4884 16.4884 13 20.7917 13ZM20.7917 15.8322L20.6643 15.8437C20.3752 15.8961 20.1472 16.1241 20.0947 16.4133L20.0833 16.5406L20.0828 20.0822L16.5383 20.0833L16.411 20.0947C16.1219 20.1472 15.8939 20.3752 15.8414 20.6643L15.83 20.7917L15.8414 20.919C15.8939 21.2081 16.1219 21.4361 16.411 21.4886L16.5383 21.5L20.0843 21.4989L20.0849 25.0466L20.0963 25.1739C20.1488 25.4631 20.3768 25.691 20.6659 25.7435L20.7932 25.7549L20.9206 25.7435C21.2097 25.691 21.4377 25.4631 21.4902 25.1739L21.5016 25.0466L21.5009 21.4989L25.0481 21.5L25.1755 21.4886C25.4646 21.4361 25.6926 21.2081 25.7451 20.919L25.7565 20.7917L25.7451 20.6643C25.6926 20.3752 25.4646 20.1472 25.1755 20.0947L25.0481 20.0833L21.4995 20.0822L21.5 16.5406L21.4886 16.4133C21.4361 16.1241 21.2081 15.8961 20.919 15.8437L20.7917 15.8322ZM21.1458 0.25C23.6886 0.25 25.75 2.31136 25.75 4.85417L25.7517 13.032C25.0952 12.6115 24.3818 12.272 23.6256 12.0277L23.625 4.85417C23.625 3.48496 22.515 2.375 21.1458 2.375H4.85417C3.48496 2.375 2.375 3.48496 2.375 4.85417V21.1458C2.375 22.515 3.48496 23.625 4.85417 23.625L12.0277 23.6256C12.272 24.3818 12.6115 25.0952 13.032 25.7517L4.85417 25.75C2.31136 25.75 0.25 23.6886 0.25 21.1458V4.85417C0.25 2.31136 2.31136 0.25 4.85417 0.25H21.1458ZM9.00019 16.0255C10.0042 16.7199 11.0978 17.1205 12.2978 17.2316C12.0224 17.8849 11.8208 18.5791 11.7033 19.3014C10.2944 19.1101 8.98591 18.5994 7.79138 17.7732C7.30877 17.4394 7.18814 16.7776 7.52194 16.295C7.85575 15.8123 8.51758 15.6917 9.00019 16.0255ZM8.75063 6.98081C9.72808 6.98081 10.5205 7.77319 10.5205 8.75063C10.5205 9.72808 9.72808 10.5205 8.75063 10.5205C7.77319 10.5205 6.98081 9.72808 6.98081 8.75063C6.98081 7.77319 7.77319 6.98081 8.75063 6.98081ZM17.2506 6.98081C18.2281 6.98081 19.0205 7.77319 19.0205 8.75063C19.0205 9.72808 18.2281 10.5205 17.2506 10.5205C16.2732 10.5205 15.4808 9.72808 15.4808 8.75063C15.4808 7.77319 16.2732 6.98081 17.2506 6.98081Z" fill="white"/>
</svg>
