<svg width="37" height="37" viewBox="0 0 37 37" fill="none" xmlns="http://www.w3.org/2000/svg">
<path d="M31.2188 6.9375H5.78125C5.14267 6.9375 4.625 7.45517 4.625 8.09375V28.9062C4.625 29.5448 5.14267 30.0625 5.78125 30.0625H31.2188C31.8573 30.0625 32.375 29.5448 32.375 28.9062V8.09375C32.375 7.45517 31.8573 6.9375 31.2188 6.9375Z" stroke="#327676" stroke-width="1.8" stroke-linecap="round" stroke-linejoin="round"/>
<path d="M4.625 24.2812L11.8949 17.0113C12.0025 16.9021 12.1308 16.8153 12.2722 16.7561C12.4136 16.6969 12.5654 16.6664 12.7188 16.6664C12.8721 16.6664 13.0239 16.6969 13.1653 16.7561C13.3067 16.8153 13.435 16.9021 13.5426 17.0113L19.9887 23.4574C20.0963 23.5667 20.2245 23.6534 20.3659 23.7126C20.5074 23.7719 20.6592 23.8024 20.8125 23.8024C20.9658 23.8024 21.1176 23.7719 21.2591 23.7126C21.4005 23.6534 21.5287 23.5667 21.6363 23.4574L24.6137 20.4801C24.7213 20.3708 24.8495 20.2841 24.9909 20.2248C25.1324 20.1656 25.2842 20.1351 25.4375 20.1351C25.5908 20.1351 25.7426 20.1656 25.8841 20.2248C26.0255 20.2841 26.1537 20.3708 26.2613 20.4801L32.375 26.5937" stroke="#327676" stroke-width="1.8" stroke-linecap="round" stroke-linejoin="round"/>
<path d="M23 16C24.1046 16 25 15.1046 25 14C25 12.8954 24.1046 12 23 12C21.8954 12 21 12.8954 21 14C21 15.1046 21.8954 16 23 16Z" fill="#327676"/>
</svg>
