<svg width="269" height="202" viewBox="0 0 269 202" fill="none" xmlns="http://www.w3.org/2000/svg">
<path fill-rule="evenodd" clip-rule="evenodd" d="M13.831 81.668C19.4352 39.6258 80.8208 34.12 125.385 21.3194C168.174 9.02888 218.166 -15.7716 248.384 14.2959C284.041 49.7748 279.527 114.196 248.384 153.005C217.263 191.787 157.596 204.495 106.956 190.542C53.3475 175.77 7.11408 132.058 13.831 81.668Z" fill="#0FCF7E" fill-opacity="0.47"/>
<path d="M139.053 85.0806L145.978 62.139C146.075 61.8188 146.241 61.5238 146.464 61.2752C146.687 61.0266 146.963 60.8304 147.27 60.7007C147.578 60.5709 147.91 60.5108 148.244 60.5247C148.577 60.5385 148.903 60.6259 149.199 60.7807L156.674 64.6776C156.997 64.8462 157.275 65.0903 157.484 65.3894C157.693 65.6884 157.827 66.0336 157.875 66.3957C157.923 66.7577 157.884 67.126 157.76 67.4694C157.635 67.8128 157.431 68.1212 157.163 68.3685L139.053 85.0806Z" fill="#FB6D6D"/>
<path d="M137.279 84.1817L157.038 71.8508C157.344 71.6595 157.69 71.5399 158.049 71.5008C158.409 71.4618 158.772 71.5042 159.112 71.6251C159.453 71.7459 159.762 71.942 160.017 72.1989C160.271 72.4558 160.465 72.7668 160.583 73.1089L163.205 80.7162C163.329 81.0774 163.366 81.4631 163.313 81.8415C163.26 82.2198 163.117 82.5801 162.898 82.8927C162.679 83.2052 162.389 83.4611 162.051 83.6392C161.714 83.8173 161.339 83.9126 160.958 83.9172L137.279 84.1817Z" fill="#FB6D6D"/>
<path d="M109.341 126.633C118.54 126.633 125.998 119.157 125.998 109.935C125.998 100.712 118.54 93.2363 109.341 93.2363C100.141 93.2363 92.6837 100.712 92.6837 109.935C92.6837 119.157 100.141 126.633 109.341 126.633Z" fill="black"/>
<path d="M73.4918 37.3465H8.07996C3.9242 37.3465 0.555298 40.7237 0.555298 44.8897V73.9216C0.555298 78.0877 3.9242 81.4649 8.07996 81.4649H73.4918C77.6475 81.4649 81.0164 78.0877 81.0164 73.9216V44.8897C81.0164 40.7237 77.6475 37.3465 73.4918 37.3465Z" fill="white"/>
<path d="M73.4918 82.0216H8.08276C5.93976 82.0194 3.88516 81.165 2.36982 79.6459C0.854487 78.1268 0.00220512 76.0671 0 73.9188V44.8925C0.00220512 42.7442 0.854487 40.6845 2.36982 39.1654C3.88516 37.6464 5.93976 36.792 8.08276 36.7897H73.4918C75.6343 36.7927 77.6882 37.6474 79.2029 39.1664C80.7177 40.6854 81.5696 42.7447 81.5718 44.8925V73.9188C81.5696 76.0667 80.7177 78.1259 79.2029 79.6449C77.6882 81.1639 75.6343 82.0186 73.4918 82.0216ZM8.08276 37.9031C6.2341 37.9046 4.46157 38.6415 3.15436 39.9519C1.84715 41.2624 1.11212 43.0393 1.11065 44.8925V73.9188C1.11212 75.7721 1.84715 77.549 3.15436 78.8594C4.46157 80.1699 6.2341 80.9067 8.08276 80.9082H73.4918C75.34 80.906 77.1118 80.1688 78.4184 78.8584C79.725 77.5481 80.4596 75.7716 80.4611 73.9188V44.8925C80.4596 43.0398 79.725 41.2633 78.4184 39.9529C77.1118 38.6425 75.34 37.9054 73.4918 37.9031H8.08276Z" fill="black"/>
<path d="M15.2409 52.2326C15.096 52.2327 14.9568 52.1759 14.853 52.0745C14.7493 51.9731 14.6892 51.835 14.6855 51.6898C14.6328 49.4241 15.4686 48.0713 16.1821 47.3336C16.9693 46.4992 18.0526 46.0092 19.1976 45.9697H19.2281C20.3338 45.9932 21.3856 46.4533 22.1547 47.2501C22.8821 47.9822 23.7457 49.3461 23.7179 51.6815C23.7179 51.8291 23.6594 51.9707 23.5553 52.0751C23.4511 52.1795 23.3099 52.2382 23.1626 52.2382C23.0153 52.2382 22.8741 52.1795 22.7699 52.0751C22.6658 51.9707 22.6073 51.8291 22.6073 51.6815C22.6295 49.733 21.9464 48.6196 21.3689 48.049C20.8043 47.4655 20.0358 47.1242 19.2253 47.097H19.2059C18.3605 47.1349 17.5634 47.5025 16.9846 48.1214C16.1766 48.9564 15.7657 50.1867 15.8017 51.6759C15.8036 51.749 15.7911 51.8218 15.7648 51.89C15.7386 51.9583 15.6992 52.0207 15.649 52.0737C15.5987 52.1267 15.5385 52.1692 15.4718 52.1989C15.4051 52.2285 15.3332 52.2447 15.2603 52.2465L15.2409 52.2326Z" fill="black"/>
<path d="M27.1803 73.6906H11.3035C10.9147 73.6904 10.5304 73.607 10.1763 73.4459C9.82227 73.2848 9.50664 73.0497 9.25057 72.7563C8.9945 72.463 8.80391 72.1182 8.69156 71.745C8.57921 71.3719 8.54769 70.9789 8.59911 70.5926L10.8204 54.0474C10.9079 53.3907 11.2304 52.7882 11.7278 52.3519C12.2253 51.9157 12.8639 51.6755 13.5248 51.6759H24.5925C25.2427 51.6759 25.8716 51.9087 26.3659 52.3322C26.8602 52.7558 27.1874 53.3423 27.2886 53.9862L29.8681 70.5341C29.9294 70.9236 29.9059 71.3219 29.7991 71.7015C29.6922 72.081 29.5047 72.4329 29.2493 72.7328C28.9939 73.0328 28.6767 73.2737 28.3195 73.439C27.9623 73.6044 27.5737 73.6902 27.1803 73.6906Z" fill="#A1C0C5"/>
<path d="M70.3151 49.1513H40.2303C39.0357 49.1513 38.0673 50.1221 38.0673 51.3197V53.0037C38.0673 54.2012 39.0357 55.172 40.2303 55.172H70.3151C71.5097 55.172 72.4781 54.2012 72.4781 53.0037V51.3197C72.4781 50.1221 71.5097 49.1513 70.3151 49.1513Z" fill="#FECD79"/>
<path d="M71.0426 62.7932H39.5056C39.3584 62.7932 39.2171 62.7345 39.113 62.6301C39.0088 62.5257 38.9503 62.3841 38.9503 62.2365C38.9503 62.0888 39.0088 61.9472 39.113 61.8428C39.2171 61.7384 39.3584 61.6798 39.5056 61.6798H71.0426C71.1899 61.6798 71.3311 61.7384 71.4353 61.8428C71.5394 61.9472 71.5979 62.0888 71.5979 62.2365C71.5979 62.3841 71.5394 62.5257 71.4353 62.6301C71.3311 62.7345 71.1899 62.7932 71.0426 62.7932Z" fill="black"/>
<path d="M66.6027 69.9468H39.5056C39.3584 69.9468 39.2171 69.8882 39.113 69.7838C39.0088 69.6794 38.9503 69.5378 38.9503 69.3901C38.9503 69.2425 39.0088 69.1009 39.113 68.9965C39.2171 68.8921 39.3584 68.8334 39.5056 68.8334H66.6027C66.75 68.8334 66.8913 68.8921 66.9954 68.9965C67.0996 69.1009 67.1581 69.2425 67.1581 69.3901C67.1581 69.5378 67.0996 69.6794 66.9954 69.7838C66.8913 69.8882 66.75 69.9468 66.6027 69.9468Z" fill="black"/>
<path d="M159.153 141.04C168.771 141.04 176.568 133.274 176.568 123.693C176.568 114.113 168.771 106.346 159.153 106.346C149.535 106.346 141.738 114.113 141.738 123.693C141.738 133.274 149.535 141.04 159.153 141.04Z" fill="black"/>
<path d="M141.739 117.636C151.357 117.636 159.154 109.87 159.154 100.29C159.154 90.7092 151.357 82.9428 141.739 82.9428C132.121 82.9428 124.324 90.7092 124.324 100.29C124.324 109.87 132.121 117.636 141.739 117.636Z" fill="black"/>
<path d="M126.439 97.5035H115.855C113.249 97.5035 110.669 96.989 108.262 95.9893C105.855 94.9897 103.668 93.5245 101.826 91.6774C99.9833 89.8303 98.522 87.6375 97.5252 85.2243C96.5283 82.811 96.0154 80.2246 96.0158 77.6126V64.0403C96.0195 60.9202 97.2586 57.9293 99.461 55.7246C101.663 53.52 104.649 52.282 107.761 52.2828H122.052C126.895 52.2828 131.539 54.2112 134.963 57.644C138.388 61.0767 140.311 65.7325 140.311 70.587V83.6222C140.31 85.4468 139.95 87.2532 139.252 88.9384C138.554 90.6235 137.532 92.1543 136.244 93.4433C134.955 94.7324 133.427 95.7544 131.744 96.451C130.062 97.1477 128.259 97.5053 126.439 97.5035Z" fill="black"/>
<path d="M100.394 56.9311C100.394 56.9311 94.1136 57.8608 92.4643 71.1771C92.2692 72.8037 91.5689 74.3276 90.4624 75.5332L89.4517 76.6299C89.1968 76.906 89.0518 77.2661 89.0441 77.6422C89.0365 78.0182 89.1666 78.384 89.41 78.6702L90.7789 80.2847L90.0875 88.8022C90.0875 88.8022 88.6992 97.8792 99.3587 97.598H106.139V107.015H127.45V90.8286C127.45 90.8286 132.306 89.9935 133.189 85.2003C133.412 84.0022 133.362 82.769 133.041 81.5932C132.721 80.4174 132.139 79.3296 131.34 78.4114C129.749 76.6049 126.944 75.0712 122.327 77.2312C122.33 77.2312 103.987 80.9221 100.394 56.9311Z" fill="white"/>
<path d="M125.998 87.2572C125.558 87.2572 125.129 87.1266 124.764 86.8819C124.398 86.6373 124.114 86.2895 123.946 85.8826C123.777 85.4757 123.733 85.0279 123.819 84.596C123.905 84.164 124.116 83.7673 124.427 83.4558C124.738 83.1444 125.134 82.9323 125.564 82.8464C125.995 82.7605 126.442 82.8046 126.848 82.9731C127.254 83.1417 127.601 83.4271 127.845 83.7933C128.089 84.1595 128.219 84.59 128.219 85.0304C128.219 85.621 127.985 86.1874 127.568 86.605C127.152 87.0226 126.587 87.2572 125.998 87.2572ZM125.998 83.9003C125.778 83.9003 125.563 83.9656 125.381 84.088C125.198 84.2103 125.056 84.3842 124.972 84.5876C124.888 84.7911 124.866 85.015 124.908 85.2309C124.951 85.4469 125.057 85.6453 125.212 85.801C125.368 85.9567 125.566 86.0628 125.781 86.1057C125.997 86.1487 126.22 86.1266 126.423 86.0424C126.626 85.9581 126.799 85.8154 126.921 85.6323C127.043 85.4492 127.108 85.2339 127.108 85.0137C127.108 84.7184 126.991 84.4352 126.783 84.2264C126.575 84.0176 126.292 83.9003 125.998 83.9003Z" fill="black"/>
<path d="M124.323 85.5788C124.179 85.5789 124.04 85.5226 123.937 85.4217C123.833 85.3209 123.772 85.1836 123.768 85.0388C123.729 83.8893 124.071 82.9596 124.787 82.2748C126.209 80.9165 128.583 81.0891 128.674 81.0974C128.822 81.1089 128.958 81.1785 129.054 81.291C129.151 81.4035 129.198 81.5496 129.187 81.6973C129.175 81.8449 129.106 81.982 128.994 82.0783C128.881 82.1746 128.736 82.2223 128.588 82.2108C128.569 82.2108 126.6 82.0716 125.534 83.0904C125.054 83.5525 124.834 84.1787 124.862 85.0082C124.865 85.0816 124.853 85.1547 124.827 85.2234C124.801 85.2921 124.762 85.3551 124.712 85.4086C124.662 85.4622 124.602 85.5053 124.535 85.5355C124.469 85.5656 124.397 85.5823 124.323 85.5844V85.5788Z" fill="black"/>
<path d="M102.63 77.2144C103.355 77.2144 103.943 76.6249 103.943 75.8978C103.943 75.1707 103.355 74.5812 102.63 74.5812C101.904 74.5812 101.316 75.1707 101.316 75.8978C101.316 76.6249 101.904 77.2144 102.63 77.2144Z" fill="black"/>
<path d="M98.0177 88.3179C97.4829 88.32 96.9531 88.214 96.4601 88.0062C94.8635 87.3298 93.7917 85.5456 93.7945 83.5693C93.7951 83.4036 93.832 83.24 93.9024 83.09C93.9728 82.9401 94.0751 82.8074 94.2021 82.7013C94.3291 82.5952 94.4778 82.5182 94.6376 82.4759C94.7974 82.4335 94.9645 82.4266 95.1273 82.4559L101.75 83.6417C101.919 83.673 102.079 83.7425 102.217 83.8448C102.356 83.9471 102.47 84.0796 102.55 84.2324C102.63 84.3851 102.675 84.5541 102.68 84.7266C102.686 84.8991 102.653 85.0706 102.583 85.2283C101.733 87.121 99.8531 88.3179 98.0177 88.3179ZM94.9274 83.5387C94.9241 83.5467 94.9241 83.5557 94.9274 83.5637C94.9274 85.1002 95.7243 86.4697 96.9154 86.9763C98.7424 87.7501 100.847 86.4196 101.594 84.7495L101.577 84.7161L94.9523 83.5303L94.9274 83.5387Z" fill="black"/>
<path d="M105.964 97.6092H116.146C116.237 97.6099 116.324 97.6416 116.394 97.699C116.463 97.7565 116.511 97.8361 116.529 97.9247C116.548 98.0133 116.535 98.1055 116.493 98.1859C116.452 98.2662 116.384 98.3299 116.302 98.3663L105.964 102.792V97.6092Z" fill="black"/>
<path d="M105.964 106.798C105.962 106.29 106.123 105.795 106.423 105.386C106.723 104.977 107.146 104.676 107.63 104.526C108.001 104.414 108.381 104.337 108.766 104.298C110.22 104.163 111.677 104.525 112.9 105.325C113.922 104.532 115.176 104.1 116.468 104.097C117.76 104.094 119.017 104.52 120.042 105.308C121.076 104.612 122.284 104.221 123.529 104.178C124.31 104.157 125.089 104.275 125.828 104.529C126.289 104.69 126.688 104.991 126.97 105.39C127.252 105.789 127.404 106.267 127.403 106.756V111.627H105.964V106.798Z" fill="#A1C0C5"/>
<path d="M188.627 177.067L66.1085 176.964L71.5396 127.12C72.0546 122.396 74.2882 118.028 77.8135 114.852C81.3388 111.675 85.9083 109.913 90.6484 109.901L141.297 109.773C147.206 109.759 152.985 111.514 157.892 114.815C162.799 118.115 166.611 122.81 168.838 128.297C179.112 151.979 186.545 169.27 187.356 171.322C187.741 172.328 188.05 173.361 188.28 174.414C188.46 175.289 188.576 176.175 188.627 177.067Z" fill="#A1C0C5"/>
<path d="M151.559 177.003H88.7576V134.335H136.152C136.799 134.335 137.43 134.543 137.951 134.928C138.472 135.313 138.856 135.855 139.048 136.475L151.559 177.003Z" fill="black"/>
<path d="M136.143 134.891C136.011 134.893 135.883 134.848 135.781 134.763C135.679 134.678 135.611 134.56 135.588 134.429C135.433 133.508 131.859 111.852 139.314 109.25C139.454 109.201 139.606 109.21 139.739 109.274C139.872 109.338 139.974 109.453 140.022 109.592C140.071 109.732 140.062 109.885 139.998 110.018C139.934 110.151 139.82 110.253 139.681 110.302C134.219 112.206 135.666 128.23 136.685 134.24C136.697 134.312 136.695 134.386 136.679 134.458C136.663 134.529 136.633 134.597 136.59 134.656C136.548 134.716 136.494 134.767 136.432 134.806C136.371 134.845 136.302 134.871 136.23 134.883C136.201 134.888 136.172 134.891 136.143 134.891Z" fill="black"/>
<path d="M90.1459 134.891C90.0206 134.892 89.899 134.849 89.8007 134.772C89.7024 134.694 89.6332 134.585 89.6044 134.463C88.1544 128.403 88.1155 122.091 89.4906 116.014C89.9892 113.85 90.6691 111.733 91.5231 109.684C91.5825 109.552 91.6909 109.448 91.8254 109.395C91.9599 109.342 92.1099 109.343 92.2433 109.399C92.3768 109.455 92.4832 109.56 92.5401 109.694C92.5969 109.827 92.5996 109.977 92.5477 110.113C91.7185 112.104 91.0581 114.162 90.5735 116.264C89.2358 122.175 89.2748 128.316 90.6873 134.209C90.7038 134.281 90.706 134.354 90.694 134.427C90.682 134.499 90.6559 134.568 90.6172 134.63C90.5785 134.692 90.528 134.746 90.4686 134.788C90.4092 134.831 90.3419 134.861 90.2708 134.877C90.23 134.888 90.1879 134.892 90.1459 134.891Z" fill="black"/>
<path d="M82.2074 100.081C81.63 99.3325 80.9674 98.6543 80.2332 98.06L80.2027 98.0322C78.8294 96.8103 77.6365 95.3989 76.6597 93.8402C75.7934 92.4485 75.2714 91.0233 74.4217 88.8299C73.9969 87.7388 73.697 86.8815 73.5304 86.4027C71.5507 80.7021 70.2512 75.5916 68.2409 74.8568C67.9383 74.7538 67.6239 74.6893 67.3052 74.6647C66.881 74.6249 66.4531 74.6706 66.0468 74.7992C65.6405 74.9278 65.264 75.1366 64.9395 75.4135C64.7243 75.5976 64.5372 75.8123 64.3842 76.0509C63.6067 77.2896 63.9927 79.0849 64.7896 82.6228C64.9173 83.1795 65.0312 83.6387 65.1061 83.9449L66.7193 91.3602C66.7193 91.3602 62.7543 92.2592 62.9765 95.4101C62.9765 95.4101 59.3113 93.2334 57.8897 97.5089C57.8897 97.5089 53.2527 97.8847 54.5994 102.984C54.5994 102.984 56.468 109.809 59.2363 110.035C59.2363 110.035 58.7143 120.684 67.5412 125.344L81.9797 123.523L82.9293 119.398C85.4283 108.543 84.301 105.022 83.8817 103.719C83.4764 102.441 82.914 101.219 82.2074 100.081Z" fill="white"/>
<path d="M69.4127 119.306C69.3251 119.307 69.2387 119.286 69.1605 119.246C69.0823 119.207 69.0146 119.149 68.9629 119.078C67.2959 116.809 66.2609 114.137 65.9642 111.335C65.3339 104.932 68.9824 100.201 70.4762 98.5722L69.3183 95.5771C69.2045 95.2737 69.0573 94.8868 68.8935 94.5027C67.9744 92.3622 67.5607 90.564 67.6662 89.1556C67.6961 88.7302 67.8117 88.3153 68.0059 87.936C68.2001 87.5566 68.469 87.2206 68.7963 86.9483C69.1169 86.6803 69.4884 86.4804 69.8884 86.3607C70.2884 86.2411 70.7085 86.2042 71.1231 86.2524C73.6388 86.5308 75.1437 89.4145 75.2076 89.5341C75.2411 89.5992 75.2615 89.6703 75.2677 89.7433C75.2739 89.8162 75.2656 89.8897 75.2434 89.9595C75.2213 90.0293 75.1856 90.094 75.1385 90.15C75.0913 90.206 75.0337 90.2521 74.9688 90.2857C74.9039 90.3193 74.833 90.3398 74.7602 90.346C74.6874 90.3522 74.6141 90.3439 74.5445 90.3217C74.4749 90.2994 74.4103 90.2637 74.3545 90.2164C74.2986 90.1692 74.2526 90.1114 74.2191 90.0463C74.2191 90.0213 72.9224 87.5718 71.001 87.3602C70.7344 87.3289 70.4643 87.3522 70.207 87.4288C69.9498 87.5053 69.7107 87.6335 69.5044 87.8056C69.2922 87.9825 69.118 88.2008 68.9925 88.4472C68.867 88.6936 68.7927 88.963 68.7741 89.2391C68.6825 90.4666 69.0657 92.0894 69.9125 94.0629C70.0875 94.4665 70.2402 94.8729 70.3568 95.1763L71.7673 98.8227L71.5202 99.0788C70.3179 100.329 66.4473 104.896 67.0776 111.22C67.3511 113.823 68.3093 116.306 69.8542 118.416C69.9408 118.535 69.9769 118.683 69.9545 118.829C69.9322 118.974 69.8532 119.105 69.7348 119.192C69.6421 119.263 69.5294 119.303 69.4127 119.306Z" fill="black"/>
<path d="M100.866 174.283C97.1062 174.035 93.3325 174.484 89.7349 175.608C76.3488 179.837 70.4096 192.229 69.149 195.034L100.866 195.199V174.283Z" fill="white"/>
<path d="M101.422 195.758L68.2909 195.586L68.6408 194.806C70.7121 190.208 76.8929 179.082 89.5682 175.077C93.2304 173.932 97.0718 173.474 100.9 173.727L101.422 173.76V195.758ZM70.018 194.483L100.311 194.639V174.81C96.7895 174.638 93.2655 175.091 89.9014 176.148C78.3201 179.798 72.3309 189.648 70.018 194.483Z" fill="black"/>
<path d="M64.4455 111.571C63.9032 111.577 63.3668 111.459 62.8767 111.226C62.2662 110.926 61.7488 110.465 61.3801 109.893C61.1897 110.126 60.9522 110.315 60.6831 110.449C60.1728 110.692 59.5887 110.727 59.0532 110.547C58.9847 110.522 58.9217 110.483 58.868 110.434C58.8142 110.385 58.7706 110.325 58.7398 110.259C58.709 110.192 58.6915 110.121 58.6884 110.048C58.6852 109.975 58.6965 109.902 58.7214 109.833C58.7464 109.764 58.7847 109.701 58.834 109.647C58.8833 109.593 58.9427 109.55 59.0088 109.519C59.075 109.488 59.1465 109.47 59.2194 109.467C59.2923 109.464 59.3651 109.475 59.4336 109.5C59.687 109.577 59.9594 109.558 60.2 109.447C60.3678 109.339 60.5124 109.198 60.6254 109.034C60.7384 108.869 60.8175 108.683 60.8581 108.487L61.4134 106.675L61.9326 108.495C61.9326 108.495 62.3019 109.712 63.3737 110.218C64.1345 110.58 65.1007 110.516 66.2447 110.032C66.3123 110 66.3857 109.982 66.4604 109.979C66.5351 109.977 66.6095 109.989 66.6794 110.016C66.7492 110.042 66.8129 110.083 66.8667 110.135C66.9204 110.187 66.9632 110.249 66.9924 110.318C67.0215 110.387 67.0365 110.461 67.0364 110.536C67.0363 110.611 67.0211 110.685 66.9917 110.754C66.9624 110.823 66.9195 110.885 66.8655 110.937C66.8116 110.989 66.7478 111.03 66.6779 111.056C65.9755 111.376 65.2164 111.551 64.4455 111.571Z" fill="black"/>
<path d="M61.3885 109.211C61.2707 109.21 61.1561 109.172 61.0613 109.102C60.9665 109.032 60.8963 108.934 60.861 108.821L57.3569 97.6705C57.3127 97.5295 57.3262 97.3767 57.3944 97.2456C57.4626 97.1146 57.5799 97.0161 57.7206 96.9718C57.8612 96.9275 58.0137 96.9411 58.1444 97.0095C58.2751 97.0778 58.3733 97.1955 58.4175 97.3365L61.9077 108.487C61.9297 108.557 61.9377 108.63 61.9313 108.703C61.9249 108.776 61.9042 108.847 61.8704 108.912C61.8366 108.977 61.7904 109.035 61.7344 109.082C61.6784 109.129 61.6137 109.164 61.544 109.186C61.4936 109.202 61.4413 109.21 61.3885 109.211Z" fill="black"/>
<path d="M66.886 106.903C66.7715 106.903 66.6599 106.867 66.5665 106.801C66.473 106.735 66.4023 106.641 66.3639 106.533L62.4628 95.5912C62.4382 95.5223 62.4273 95.4492 62.4309 95.3761C62.4345 95.303 62.4524 95.2313 62.4836 95.1651C62.5148 95.0989 62.5586 95.0396 62.6127 94.9904C62.6668 94.9413 62.73 94.9033 62.7988 94.8786C62.8675 94.8539 62.9404 94.843 63.0133 94.8466C63.0862 94.8502 63.1577 94.8681 63.2237 94.8994C63.2897 94.9307 63.349 94.9747 63.398 95.0289C63.4471 95.0831 63.485 95.1465 63.5096 95.2154L67.3969 106.16C67.4267 106.244 67.4359 106.334 67.4237 106.423C67.4115 106.511 67.3783 106.595 67.3269 106.668C67.2754 106.741 67.2072 106.8 67.1281 106.841C67.0489 106.882 66.9611 106.904 66.8721 106.903H66.886Z" fill="black"/>
<path d="M212.279 45.3544H175.946C170.677 45.3544 166.406 49.6358 166.406 54.9172C166.406 60.1985 170.677 64.4799 175.946 64.4799H212.279C217.548 64.4799 221.819 60.1985 221.819 54.9172C221.819 49.6358 217.548 45.3544 212.279 45.3544Z" fill="white"/>
<path d="M212.293 65.0394H175.944C173.266 65.0394 170.698 63.9731 168.805 62.0751C166.912 60.177 165.848 57.6028 165.848 54.9186C165.848 52.2344 166.912 49.6601 168.805 47.7621C170.698 45.8641 173.266 44.7978 175.944 44.7978H212.293C214.97 44.7978 217.538 45.8641 219.431 47.7621C221.325 49.6601 222.388 52.2344 222.388 54.9186C222.388 57.6028 221.325 60.177 219.431 62.0751C217.538 63.9731 214.97 65.0394 212.293 65.0394ZM175.944 45.9112C173.561 45.9112 171.275 46.8602 169.59 48.5494C167.905 50.2386 166.958 52.5297 166.958 54.9186C166.958 57.3075 167.905 59.5986 169.59 61.2878C171.275 62.977 173.561 63.926 175.944 63.926H212.293C214.676 63.926 216.961 62.977 218.646 61.2878C220.331 59.5986 221.278 57.3075 221.278 54.9186C221.278 52.5297 220.331 50.2386 218.646 48.5494C216.961 46.8602 214.676 45.9112 212.293 45.9112H175.944Z" fill="black"/>
<path d="M179.014 58.0334C180.73 58.0334 182.122 56.6389 182.122 54.9187C182.122 53.1985 180.73 51.804 179.014 51.804C177.298 51.804 175.907 53.1985 175.907 54.9187C175.907 56.6389 177.298 58.0334 179.014 58.0334Z" fill="#6DC8C2"/>
<path d="M194.111 58.0334C195.827 58.0334 197.218 56.6389 197.218 54.9187C197.218 53.1985 195.827 51.804 194.111 51.804C192.395 51.804 191.004 53.1985 191.004 54.9187C191.004 56.6389 192.395 58.0334 194.111 58.0334Z" fill="#6DC8C2"/>
<path d="M209.208 58.0334C210.924 58.0334 212.315 56.6389 212.315 54.9187C212.315 53.1985 210.924 51.804 209.208 51.804C207.492 51.804 206.101 53.1985 206.101 54.9187C206.101 56.6389 207.492 58.0334 209.208 58.0334Z" fill="#6DC8C2"/>
<path d="M30.7705 97.7818H13.125C9.51215 97.7818 6.58331 100.718 6.58331 104.34V122.029C6.58331 125.651 9.51215 128.587 13.125 128.587H30.7705C34.3834 128.587 37.3123 125.651 37.3123 122.029V104.34C37.3123 100.718 34.3834 97.7818 30.7705 97.7818Z" fill="white"/>
<path d="M30.7679 129.143H13.1252C11.2434 129.14 9.43948 128.39 8.10908 127.055C6.77868 125.721 6.03034 123.912 6.02814 122.026V104.334C6.03034 102.448 6.77868 100.639 8.10908 99.3047C9.43948 97.9705 11.2434 97.2196 13.1252 97.2167H30.7679C32.6502 97.2189 34.4548 97.9695 35.7858 99.3038C37.1168 100.638 37.8655 102.447 37.8677 104.334V122.018C37.8677 123.906 37.12 125.717 35.7887 127.053C34.4575 128.389 32.6517 129.141 30.7679 129.143ZM13.1252 98.3384C11.5389 98.3399 10.0179 98.9719 8.89575 100.096C7.77356 101.22 7.14173 102.744 7.13879 104.334V122.018C7.14026 123.609 7.77135 125.135 8.89362 126.26C10.0159 127.386 11.5377 128.019 13.1252 128.022H30.7679C32.3556 128.019 33.8777 127.386 35.0005 126.261C36.1232 125.135 36.7549 123.609 36.7571 122.018V104.334C36.7556 102.742 36.1241 101.216 35.0013 100.09C33.8784 98.9646 32.3559 98.3315 30.7679 98.3301L13.1252 98.3384Z" fill="black"/>
<path d="M30.5178 108.15C30.1783 107.525 29.6715 107.008 29.0546 106.656C26.2196 105.066 23.3569 106.052 21.9547 108.117C20.5331 106.026 17.6148 105.038 14.7355 106.725C14.213 107.03 13.7764 107.463 13.4666 107.983C12.1643 110.177 12.4198 112.378 13.5138 113.946C13.5335 113.974 13.5548 114.001 13.5776 114.026V114.04C13.5998 114.071 14.9937 115.691 15.8656 116.576C17.5299 118.201 19.275 119.742 21.094 121.191C21.3293 121.383 21.6235 121.488 21.9269 121.488C22.2304 121.488 22.5246 121.383 22.7599 121.191C24.3287 119.936 25.6032 118.847 26.55 118.015C27.2733 117.411 27.956 116.76 28.5936 116.067C29.9542 114.561 32.9502 112.587 30.5178 108.15Z" fill="#FB6D6D"/>
<path d="M231.404 86.2134H177.246C172.09 86.2134 167.911 90.4032 167.911 95.5715V155.008C167.911 160.176 172.09 164.366 177.246 164.366H231.404C236.56 164.366 240.739 160.176 240.739 155.008V95.5715C240.739 90.4032 236.56 86.2134 231.404 86.2134Z" fill="white"/>
<path d="M231.404 164.922H177.246C174.624 164.919 172.11 163.874 170.256 162.015C168.401 160.156 167.359 157.636 167.356 155.008V95.5716C167.359 92.9429 168.401 90.4227 170.256 88.564C172.11 86.7052 174.624 85.6597 177.246 85.6567H231.404C234.026 85.6597 236.54 86.7052 238.394 88.564C240.249 90.4227 241.291 92.9429 241.294 95.5716V155.008C241.291 157.636 240.249 160.156 238.394 162.015C236.54 163.874 234.026 164.919 231.404 164.922ZM177.246 86.7701C174.918 86.7731 172.687 87.7013 171.041 89.3513C169.395 91.0012 168.469 93.2382 168.466 95.5716V155.008C168.469 157.341 169.395 159.578 171.041 161.228C172.687 162.878 174.918 163.806 177.246 163.809H231.404C233.732 163.806 235.963 162.878 237.609 161.228C239.255 159.578 240.181 157.341 240.184 155.008V95.5716C240.182 93.238 239.256 91.0006 237.61 89.3505C235.964 87.7004 233.732 86.7724 231.404 86.7701H177.246Z" fill="black"/>
<path d="M186.106 115.604H178.862C176.76 115.604 175.055 117.313 175.055 119.421V126.683C175.055 128.79 176.76 130.499 178.862 130.499H186.106C188.209 130.499 189.913 128.79 189.913 126.683V119.421C189.913 117.313 188.209 115.604 186.106 115.604Z" fill="#FFC1EB"/>
<path d="M186.106 138.215H178.862C176.76 138.215 175.055 139.923 175.055 142.031V149.293C175.055 151.401 176.76 153.109 178.862 153.109H186.106C188.209 153.109 189.913 151.401 189.913 149.293V142.031C189.913 139.923 188.209 138.215 186.106 138.215Z" fill="#FFC1EB"/>
<path d="M232.62 119.429H199.084C198.937 119.429 198.796 119.37 198.692 119.266C198.587 119.161 198.529 119.02 198.529 118.872C198.529 118.725 198.587 118.583 198.692 118.479C198.796 118.374 198.937 118.316 199.084 118.316H232.62C232.768 118.316 232.909 118.374 233.013 118.479C233.117 118.583 233.176 118.725 233.176 118.872C233.176 119.02 233.117 119.161 233.013 119.266C232.909 119.37 232.768 119.429 232.62 119.429Z" fill="black"/>
<path d="M219.756 127.626H199.084C198.937 127.626 198.796 127.568 198.692 127.463C198.587 127.359 198.529 127.217 198.529 127.07C198.529 126.922 198.587 126.78 198.692 126.676C198.796 126.572 198.937 126.513 199.084 126.513H219.756C219.904 126.513 220.045 126.572 220.149 126.676C220.253 126.78 220.312 126.922 220.312 127.07C220.312 127.217 220.253 127.359 220.149 127.463C220.045 127.568 219.904 127.626 219.756 127.626Z" fill="black"/>
<path d="M232.62 142.12H199.084C198.937 142.12 198.796 142.062 198.692 141.957C198.587 141.853 198.529 141.711 198.529 141.563C198.529 141.416 198.587 141.274 198.692 141.17C198.796 141.065 198.937 141.007 199.084 141.007H232.62C232.768 141.007 232.909 141.065 233.013 141.17C233.117 141.274 233.176 141.416 233.176 141.563C233.176 141.711 233.117 141.853 233.013 141.957C232.909 142.062 232.768 142.12 232.62 142.12Z" fill="black"/>
<path d="M219.756 150.317H199.084C198.937 150.317 198.796 150.259 198.692 150.154C198.587 150.05 198.529 149.908 198.529 149.761C198.529 149.613 198.587 149.472 198.692 149.367C198.796 149.263 198.937 149.204 199.084 149.204H219.756C219.904 149.204 220.045 149.263 220.149 149.367C220.253 149.472 220.312 149.613 220.312 149.761C220.312 149.908 220.253 150.05 220.149 150.154C220.045 150.259 219.904 150.317 219.756 150.317Z" fill="black"/>
<path d="M188.305 96.6879C188.074 96.2596 187.726 95.9055 187.303 95.6663C185.359 94.5752 183.399 95.2516 182.438 96.6684C181.464 95.2349 179.464 94.5585 177.496 95.7081C177.139 95.9188 176.841 96.2166 176.629 96.5737C175.735 98.074 175.91 99.5827 176.66 100.657C176.673 100.677 176.688 100.695 176.704 100.713C176.721 100.735 177.676 101.846 178.273 102.452C178.784 102.967 180.045 104.148 181.855 105.612C182.016 105.742 182.216 105.812 182.423 105.812C182.629 105.812 182.83 105.742 182.991 105.612C184.065 104.749 184.934 104.003 185.587 103.435C186.077 103.022 186.541 102.577 186.975 102.105C187.919 101.083 189.974 99.7302 188.305 96.6879Z" fill="#FB6D6D"/>
<path d="M164.862 200.891H104.72C103.803 200.891 102.894 200.71 102.046 200.359C101.198 200.007 100.428 199.491 99.7788 198.841C99.1298 198.19 98.6149 197.418 98.2637 196.568C97.9124 195.718 97.7316 194.808 97.7316 193.888V182.328C97.7324 178.204 99.367 174.248 102.276 171.332C105.185 168.416 109.131 166.777 113.245 166.776H178.362C181.087 166.776 183.7 167.861 185.627 169.793C187.553 171.724 188.636 174.344 188.636 177.075C188.635 180.204 188.019 183.302 186.823 186.192C185.628 189.082 183.877 191.707 181.669 193.919C179.462 196.13 176.841 197.884 173.957 199.081C171.074 200.277 167.983 200.892 164.862 200.891Z" fill="#A1C0C5"/>
<path d="M71.8591 201.996C69.3693 201.944 66.9141 201.401 64.6336 200.398C62.3532 199.395 60.2922 197.952 58.5682 196.15C56.8443 194.349 55.4913 192.224 54.5864 189.898C53.6816 187.573 53.2426 185.091 53.2945 182.595L54.3302 132.645C54.3907 129.777 55.585 127.05 57.6505 125.063C59.716 123.077 62.4837 121.995 65.3451 122.054L81.6856 122.396C84.5448 122.458 87.2624 123.656 89.2409 125.726C91.2195 127.796 92.297 130.569 92.2367 133.436L91.2122 183.385C91.1606 185.881 90.619 188.343 89.6185 190.629C88.6179 192.915 87.178 194.981 85.3808 196.709C83.5837 198.437 81.4646 199.794 79.1445 200.701C76.8244 201.608 74.3488 202.048 71.8591 201.996Z" fill="#A1C0C5"/>
<path d="M160.786 166.774H145.709C145.562 166.774 145.42 166.715 145.316 166.61C145.212 166.506 145.154 166.364 145.154 166.217C145.154 166.069 145.212 165.928 145.316 165.823C145.42 165.719 145.562 165.66 145.709 165.66H160.786C160.933 165.66 161.075 165.719 161.179 165.823C161.283 165.928 161.341 166.069 161.341 166.217C161.341 166.364 161.283 166.506 161.179 166.61C161.075 166.715 160.933 166.774 160.786 166.774Z" fill="black"/>
<path d="M143.377 85.8433C142.578 85.8433 141.798 85.6062 141.134 85.1618C140.471 84.7175 139.953 84.0859 139.647 83.3469C139.342 82.6078 139.261 81.7945 139.416 81.0096C139.571 80.2248 139.955 79.5036 140.519 78.9373C141.083 78.3709 141.801 77.9848 142.584 77.8277C143.366 77.6706 144.178 77.7496 144.916 78.0546C145.654 78.3597 146.285 78.8771 146.729 79.5416C147.174 80.206 147.412 80.9877 147.414 81.7878C147.414 82.3199 147.311 82.8469 147.108 83.3387C146.906 83.8305 146.608 84.2775 146.233 84.6542C145.858 85.0308 145.413 85.3297 144.923 85.5337C144.433 85.7378 143.907 85.843 143.377 85.8433ZM143.377 78.8623C142.797 78.8623 142.231 79.0346 141.75 79.3574C141.268 79.6801 140.893 80.1388 140.672 80.6754C140.451 81.2119 140.393 81.8023 140.507 82.3716C140.62 82.9409 140.9 83.4636 141.31 83.8736C141.72 84.2836 142.242 84.5623 142.811 84.6746C143.379 84.7868 143.968 84.7276 144.502 84.5042C145.037 84.2809 145.493 83.9036 145.814 83.42C146.134 82.9364 146.305 82.3684 146.303 81.7878C146.3 81.0114 145.991 80.2677 145.442 79.7195C144.894 79.1713 144.151 78.8631 143.377 78.8623Z" fill="black"/>
<path d="M92.3143 134.891C92.167 134.891 92.0258 134.833 91.9216 134.728C91.8175 134.624 91.759 134.482 91.759 134.335C91.6868 123.226 82.6239 122.984 82.2435 122.984C82.0962 122.984 81.955 122.925 81.8508 122.821C81.7467 122.716 81.6882 122.575 81.6882 122.427C81.6882 122.279 81.7467 122.138 81.8508 122.033C81.955 121.929 82.0962 121.87 82.2435 121.87C82.349 121.87 92.778 122.112 92.8585 134.337C92.8585 134.485 92.8 134.627 92.6959 134.731C92.5917 134.835 92.4505 134.894 92.3032 134.894L92.3143 134.891Z" fill="black"/>
<path d="M124.779 110.491H107.564C107.416 110.491 107.275 110.433 107.171 110.328C107.067 110.224 107.008 110.082 107.008 109.935C107.008 109.787 107.067 109.645 107.171 109.541C107.275 109.437 107.416 109.378 107.564 109.378H124.779C124.926 109.378 125.067 109.437 125.172 109.541C125.276 109.645 125.334 109.787 125.334 109.935C125.334 110.082 125.276 110.224 125.172 110.328C125.067 110.433 124.926 110.491 124.779 110.491Z" fill="black"/>
<path d="M108.463 198.728C108.316 198.728 108.175 198.669 108.071 198.565C107.967 198.461 107.908 198.319 107.908 198.171V172.919C107.908 172.772 107.967 172.63 108.071 172.526C108.175 172.421 108.316 172.363 108.463 172.363C108.611 172.363 108.752 172.421 108.856 172.526C108.96 172.63 109.019 172.772 109.019 172.919V198.171C109.019 198.319 108.96 198.461 108.856 198.565C108.752 198.669 108.611 198.728 108.463 198.728Z" fill="black"/>
<path d="M85.5811 132.525H60.3943C60.247 132.525 60.1058 132.467 60.0016 132.362C59.8975 132.258 59.839 132.116 59.839 131.969C59.839 131.821 59.8975 131.679 60.0016 131.575C60.1058 131.471 60.247 131.412 60.3943 131.412H85.5811C85.7284 131.412 85.8696 131.471 85.9738 131.575C86.0779 131.679 86.1364 131.821 86.1364 131.969C86.1364 132.116 86.0779 132.258 85.9738 132.362C85.8696 132.467 85.7284 132.525 85.5811 132.525Z" fill="black"/>
<path d="M71.9646 81.6598C71.4093 80.14 70.6068 78.1888 69.4795 76.5576C68.5244 75.1659 67.4331 74.5813 66.2336 74.7901C65.8868 74.8316 65.5533 74.9495 65.2572 75.1352C64.961 75.321 64.7094 75.57 64.5204 75.8645C63.5736 77.3871 64.2039 80.0732 64.5204 81.1532L64.5621 81.2924L63.5042 81.6292L63.4542 81.4649C63.0127 79.9396 62.438 77.1088 63.5792 75.2744C63.8496 74.8458 64.2106 74.4818 64.6366 74.2081C65.0626 73.9345 65.5433 73.7578 66.0448 73.6906C67.6858 73.4123 69.1907 74.175 70.3958 75.9174C71.6009 77.6599 72.42 79.6863 73.0086 81.2645L71.9646 81.6598Z" fill="black"/>
</svg>
